<svg width="32" height="32" viewBox="0 0 32 32" fill="none" xmlns="http://www.w3.org/2000/svg">
<circle cx="16" cy="16" r="16" fill="#9FABD9"/>
<circle cx="15.579" cy="10.778" r="4.77803" stroke="#200E32" stroke-width="1.5" stroke-linecap="round" stroke-linejoin="round"/>
<path fill-rule="evenodd" clip-rule="evenodd" d="M8.00002 22.2016C7.99873 21.8657 8.07385 21.5339 8.2197 21.2313C8.67736 20.316 9.96798 19.8308 11.0389 19.6112C11.8113 19.4463 12.5943 19.3362 13.3822 19.2816C14.8408 19.1535 16.3079 19.1535 17.7666 19.2816C18.5544 19.3369 19.3374 19.447 20.1099 19.6112C21.1808 19.8308 22.4714 20.2702 22.9291 21.2313C23.2224 21.8481 23.2224 22.5642 22.9291 23.181C22.4714 24.1421 21.1808 24.5814 20.1099 24.7919C19.3384 24.9636 18.5551 25.0768 17.7666 25.1306C16.5794 25.2313 15.3866 25.2496 14.1968 25.1855C13.9222 25.1855 13.6568 25.1855 13.3822 25.1306C12.5966 25.0775 11.8163 24.9642 11.0481 24.7919C9.96798 24.5814 8.68652 24.1421 8.2197 23.181C8.0746 22.8749 7.99955 22.5403 8.00002 22.2016Z" stroke="#200E32" stroke-width="1.5" stroke-linecap="round" stroke-linejoin="round"/>
</svg>
